# xmcd CD database file
#
# Track frame offsets:
#	150
#	12900
#	26700
#	40725
#	53700
#	64950
#	79950
#	95325
#	107400
#	122850
#	133950
#	150300
#	163200
#	179250
#	189900
#	200925
#
# Disc length: 2891 seconds
#
# Revision: 1
# Processed by: cddbd v1.5.1PL2 Copyright (c) Steve Scherf et al.
# Submitted via: CDex 1.51
#
DISCID=da0b4910
DTITLE=Golden Gate Quartet - The Very Best Of
DYEAR=1997
DGENRE=Gospel
TTITLE0=He's  Got The Whole World In His Hand
TTITLE1=Go Down Moses (Let My People Go)
TTITLE2=On The Sunny Side Of The Street
TTITLE3=Ezekiel (Saw The Wheel)
TTITLE4=Joshua (Fit The Battle Of Jericho)
TTITLE5=Sixteen Tons
TTITLE6=If I Had A Hammer
TTITLE7=Swing Low Sweet Chariot
TTITLE8=Put Your Hands In The Hands
TTITLE9=Mamie Blue
TTITLE10=Summertime
TTITLE11=When The Saints Go Marching In
TTITLE12=He Never Said A Mumbalin Word
TTITLE13=Kansas City
TTITLE14=Just A Closer Walk With Thee
TTITLE15=Amen
EXTD=YEAR: 1997
EXTT0=
EXTT1=
EXTT2=
EXTT3=
EXTT4=
EXTT5=
EXTT6=
EXTT7=
EXTT8=
EXTT9=
EXTT10=
EXTT11=
EXTT12=
EXTT13=
EXTT14=
EXTT15=
PLAYORDER=
